<svg width="74" height="80" viewBox="0 0 74 80" fill="none" xmlns="http://www.w3.org/2000/svg">
<path d="M26.9882 13L29.4453 6.65714C29.8597 5.58322 30.5888 4.65949 31.5371 4.00693C32.4854 3.35437 33.6086 3.0034 34.7596 3H39.4453C40.5964 3.0034 41.7197 3.35437 42.6679 4.00693C43.6162 4.65949 44.3452 5.58322 44.7596 6.65714L47.2168 13L55.5594 17.8L62.3023 16.7714C63.4251 16.619 64.568 16.8038 65.5857 17.3024C66.6028 17.801 67.4491 18.5907 68.0165 19.5714L70.3023 23.5714C70.888 24.5677 71.1583 25.7182 71.0765 26.871C70.9948 28.0238 70.5657 29.1247 69.8451 30.0286L65.6737 35.3429V44.9429L69.9594 50.2571C70.68 51.161 71.1091 52.2619 71.1908 53.4147C71.2725 54.5675 71.0023 55.718 70.4165 56.7143L68.1308 60.7143C67.5634 61.6949 66.7171 62.4846 65.7 62.9834C64.6823 63.4817 63.5394 63.6669 62.4165 63.5143L55.6737 62.4857L47.3311 67.2857L44.8739 73.6286C44.4595 74.7023 43.7305 75.6263 42.7822 76.2789C41.834 76.9314 40.7107 77.2823 39.5596 77.2857H34.7596C33.6086 77.2823 32.4854 76.9314 31.5371 76.2789C30.5888 75.6263 29.8597 74.7023 29.4453 73.6286L26.9882 67.2857L18.6454 62.4857L11.9025 63.5143C10.7798 63.6669 9.63701 63.4817 8.61952 62.9834C7.6021 62.4846 6.75581 61.6949 6.18821 60.7143L3.90249 56.7143C3.31678 55.718 3.04695 54.5675 3.12855 53.4147C3.21015 52.2619 3.63941 51.161 4.35964 50.2571L8.53107 44.9429V35.3429L4.24535 30.0286C3.52512 29.1247 3.09587 28.0238 3.01427 26.871C2.93267 25.7182 3.20249 24.5677 3.78821 23.5714L6.07392 19.5714C6.64152 18.5907 7.48781 17.801 8.50524 17.3024C9.52272 16.8038 10.6655 16.619 11.7882 16.7714L18.5311 17.8L26.9882 13ZM25.6739 40.1429C25.6739 42.4032 26.3442 44.6128 27.6 46.4922C28.8558 48.3717 30.6407 49.8365 32.729 50.7015C34.8173 51.5665 37.1152 51.7928 39.3321 51.3518C41.549 50.9109 43.5854 49.8224 45.1837 48.2241C46.782 46.6258 47.8705 44.5894 48.3115 42.3725C48.7524 40.1555 48.5261 37.8577 47.6611 35.7693C46.7962 33.681 45.3313 31.8961 43.4519 30.6403C41.5724 29.3846 39.3628 28.7143 37.1025 28.7143C34.0715 28.7143 31.1646 29.9183 29.0213 32.0617C26.878 34.2049 25.6739 37.1118 25.6739 40.1429Z" stroke="#00BFFF" stroke-width="5" stroke-linecap="round" stroke-linejoin="round"/>
</svg>
