<svg width="80" height="80" viewBox="0 0 80 80" fill="none" xmlns="http://www.w3.org/2000/svg">
<path fill-rule="evenodd" clip-rule="evenodd" d="M37.5 12.5V5H42.5V12.5H37.5ZM57.1548 54.5596C58.9325 56.7188 60 59.4846 60 62.4997C60 69.4033 54.4036 74.9997 47.5 74.9997L47.4084 74.9994H28.8469V74.9992L28.75 74.9994C18.3947 74.9994 10 66.6048 10 56.2494C10 50.1004 12.9599 44.6428 17.5327 41.2235C17.511 40.8184 17.5 40.4105 17.5 40C17.5 27.5736 27.5736 17.5 40 17.5C52.4264 17.5 62.5 27.5736 62.5 40C62.5 45.5526 60.4887 50.6354 57.1548 54.5596ZM53.2705 51.4085C51.5443 50.5085 49.5816 49.9997 47.5 49.9997C45.3863 49.9997 43.3951 50.5243 41.6496 51.4505C42.2062 52.9447 42.5104 54.5618 42.5104 56.25C42.5104 56.4727 42.5051 56.6941 42.4947 56.9142C43.8222 55.7238 45.5766 54.9997 47.5 54.9997C51.6422 54.9997 55 58.3575 55 62.4997C55 66.6418 51.6422 69.9997 47.5 69.9997V69.9994H47.429L47.333 69.9979H28.9583C28.889 69.9989 28.8196 69.9994 28.75 69.9994C21.1561 69.9994 15 63.8433 15 56.2494C15 48.6555 21.1561 42.4994 28.75 42.4994C34.6576 42.4994 39.6951 46.225 41.641 51.4549C43.0963 50.6813 44.7226 50.1869 46.4485 50.0431C43.8869 42.7378 36.9302 37.4994 28.75 37.4994C26.5808 37.4994 24.4976 37.8678 22.5596 38.5454C23.2989 29.561 30.8249 22.5 40 22.5C49.665 22.5 57.5 30.335 57.5 40C57.5 44.3586 55.9066 48.345 53.2705 51.4085ZM75 37.5H67.5V42.5H75V37.5ZM62.5656 24.0849L69.0608 20.3349L71.5608 24.6651L65.0656 28.4151L62.5656 24.0849ZM55.3351 8.43933L51.5851 14.9345L55.9152 17.4345L59.6652 10.9393L55.3351 8.43933ZM24.0849 17.4345L20.3349 10.9393L24.6651 8.43933L28.4151 14.9345L24.0849 17.4345ZM8.43918 24.6651L14.9344 28.4151L17.4344 24.0849L10.9392 20.3349L8.43918 24.6651ZM5 37.5H12.5V42.5H5V37.5ZM62.5658 55.9151L69.061 59.6651L71.561 55.3349L65.0658 51.5849L62.5658 55.9151Z" fill="#00BFFF"/>
</svg>
